<svg width="109" height="109" viewBox="0 0 109 109" fill="none" xmlns="http://www.w3.org/2000/svg">
<path d="M13.9956 0.00435638H95.0109C102.708 0.00435638 109 6.29874 109 13.9956V95.0109C109 102.706 102.708 108.996 95.0109 108.996H13.9956C6.29875 108.996 0 102.705 0 95.0109V13.9956C0 6.29874 6.29875 0.00435638 13.9956 0.00435638ZM79.4051 12.1095C76.7026 12.1095 74.4982 14.3226 74.4982 17.0236V28.7644C74.4982 31.4665 76.7026 33.6745 79.4051 33.6745H91.7231C94.4213 33.6745 96.6303 31.4665 96.6303 28.7644V17.0236C96.6303 14.3226 94.4213 12.1095 91.7231 12.1095H79.4051ZM96.6772 46.0954H87.0866C87.9961 49.0656 88.4891 52.1979 88.4891 55.4545C88.4891 73.5783 73.3141 88.278 54.6025 88.278C35.8955 88.278 20.7202 73.5783 20.7202 55.4545C20.7202 52.1979 21.2179 49.0656 22.123 46.0954H12.1172V92.1413C12.1172 94.5259 14.0643 96.4657 16.4466 96.4657H92.3495C94.7341 96.4657 96.6772 94.5259 96.6772 92.1413V46.0954ZM54.6028 33.0553C42.5184 33.0553 32.7156 42.5485 32.7156 54.2697C32.7156 65.9788 42.5184 75.4792 54.6028 75.4792C66.6938 75.4792 76.4969 65.9788 76.4969 54.2697C76.4969 42.5482 66.6938 33.0553 54.6028 33.0553Z" fill="black"/>
</svg>
