<svg width="204" height="27" viewBox="0 0 204 27" fill="none" xmlns="http://www.w3.org/2000/svg">
<path d="M14.4434 3.64062V24.0312C14.4434 24.3008 14.5898 24.5059 14.8828 24.6465C15.1875 24.7871 15.5332 24.8926 15.9199 24.9629C16.3184 25.0332 16.7109 25.0859 17.0977 25.1211C17.4844 25.1445 17.7656 25.1738 17.9414 25.209C18.0469 25.3379 18.1055 25.4316 18.1172 25.4902C18.1406 25.5371 18.1523 25.6133 18.1523 25.7188C18.1523 25.8242 18.1172 25.9121 18.0469 25.9824C17.9883 26.0527 17.9121 26.1055 17.8184 26.1406C17.7246 26.1875 17.6191 26.2227 17.502 26.2461C17.3965 26.2695 17.2969 26.2812 17.2031 26.2812C16.9688 26.2812 16.6113 26.2578 16.1309 26.2109C15.6504 26.1641 15.1406 26.1113 14.6016 26.0527C14.0742 26.0059 13.5586 25.959 13.0547 25.9121C12.5625 25.8652 12.1816 25.8418 11.9121 25.8418C11.4551 25.8418 11.0156 25.8477 10.5938 25.8594C10.1719 25.8711 9.73242 25.918 9.27539 26C9.18164 26 9.0293 26.0176 8.81836 26.0527C8.61914 26.0996 8.39648 26.1465 8.15039 26.1934C7.9043 26.2402 7.6582 26.2812 7.41211 26.3164C7.17773 26.3633 6.98438 26.3867 6.83203 26.3867C6.71484 26.3867 6.62695 26.334 6.56836 26.2285C6.50977 26.1348 6.48047 26.0586 6.48047 26C6.48047 25.8477 6.5625 25.7246 6.72656 25.6309C6.90234 25.5371 7.04883 25.4785 7.16602 25.4551C7.23633 25.4199 7.36523 25.3789 7.55273 25.332C7.75195 25.2852 7.96875 25.2383 8.20312 25.1914C8.4375 25.1328 8.66016 25.0801 8.87109 25.0332C9.09375 24.9746 9.26953 24.9219 9.39844 24.875C9.58594 24.8281 9.75 24.7812 9.89062 24.7344C10.0312 24.6758 10.1484 24.6055 10.2422 24.5234C10.3359 24.4297 10.4062 24.3125 10.4531 24.1719C10.5 24.0195 10.5234 23.8262 10.5234 23.5918V4.34375C10.5234 4.25 10.5176 4.15039 10.5059 4.04492C10.4941 3.92773 10.4707 3.82227 10.4355 3.72852C10.4004 3.63477 10.3477 3.55859 10.2773 3.5C10.207 3.44141 10.1074 3.41211 9.97852 3.41211H6.04102C5.51367 3.41211 5.0625 3.45898 4.6875 3.55273C4.3125 3.63477 3.9668 3.76953 3.65039 3.95703C3.26367 4.15625 2.87109 4.42578 2.47266 4.76562C2.08594 5.10547 1.78711 5.46289 1.57617 5.83789C1.54102 5.89648 1.50586 5.97852 1.4707 6.08398C1.44727 6.18945 1.41211 6.29492 1.36523 6.40039C1.31836 6.50586 1.26562 6.59961 1.20703 6.68164C1.14844 6.76367 1.07812 6.80469 0.996094 6.80469C0.949219 6.80469 0.896484 6.76953 0.837891 6.69922C0.779297 6.62891 0.720703 6.54102 0.662109 6.43555C0.603516 6.31836 0.550781 6.19531 0.503906 6.06641C0.46875 5.92578 0.451172 5.79102 0.451172 5.66211C0.451172 5.4043 0.503906 5.13477 0.609375 4.85352C0.726562 4.57227 0.867188 4.27344 1.03125 3.95703C1.19531 3.64062 1.37109 3.30078 1.55859 2.9375C1.74609 2.5625 1.91602 2.15234 2.06836 1.70703V1.39062C2.06836 1.30859 2.08594 1.2207 2.12109 1.12695C2.17969 1.02148 2.26172 0.962891 2.36719 0.951172C2.48438 0.927734 2.60742 0.916016 2.73633 0.916016C2.8418 0.916016 2.92969 0.951172 3 1.02148C3.07031 1.08008 3.14062 1.15039 3.21094 1.23242C3.28125 1.31445 3.35742 1.40234 3.43945 1.49609C3.5332 1.57812 3.64453 1.63672 3.77344 1.67188C3.91406 1.70703 4.18359 1.75391 4.58203 1.8125C4.98047 1.85938 5.52539 1.90625 6.2168 1.95312C6.91992 2 7.77539 2.04102 8.7832 2.07617C9.79102 2.11133 10.9805 2.12891 12.3516 2.12891C12.6797 2.12891 13.0547 2.12305 13.4766 2.11133C13.8984 2.08789 14.332 2.06445 14.7773 2.04102C15.2344 2.01758 15.6855 2 16.1309 1.98828C16.5762 1.96484 16.9863 1.95312 17.3613 1.95312C17.6543 1.95312 17.918 1.96484 18.1523 1.98828C18.3867 2.01172 18.6387 2.04688 18.9082 2.09375C19.0488 2.11719 19.2012 2.14062 19.3652 2.16406C19.5293 2.1875 19.6934 2.21094 19.8574 2.23438C20.0215 2.24609 20.1738 2.25781 20.3145 2.26953C20.4551 2.28125 20.5664 2.28711 20.6484 2.28711C20.8711 2.28711 20.9824 2.16406 20.9824 1.91797C20.9824 1.78906 21.0234 1.66602 21.1055 1.54883C21.2109 1.41992 21.3516 1.26758 21.5273 1.0918C21.7031 0.916016 21.8555 0.828125 21.9844 0.828125C22.0781 0.828125 22.1777 0.892578 22.2832 1.02148C22.4004 1.15039 22.5117 1.30859 22.6172 1.49609C22.7344 1.67188 22.8398 1.85352 22.9336 2.04102C23.0391 2.2168 23.127 2.35742 23.1973 2.46289C23.2793 2.65039 23.3379 2.87891 23.373 3.14844C23.4082 3.40625 23.4492 3.60547 23.4961 3.74609C23.543 3.85156 23.6426 4.02148 23.7949 4.25586C23.959 4.49023 24.123 4.74219 24.2871 5.01172C24.4512 5.26953 24.5977 5.52148 24.7266 5.76758C24.8672 6.01367 24.9375 6.20703 24.9375 6.34766C24.9375 6.65234 24.8027 6.80469 24.5332 6.80469C24.3691 6.80469 24.1699 6.71094 23.9355 6.52344C23.7129 6.33594 23.4727 6.11914 23.2148 5.87305C22.9688 5.62695 22.7168 5.38086 22.459 5.13477C22.2012 4.87695 21.9609 4.67773 21.7383 4.53711C21.5859 4.44336 21.375 4.33789 21.1055 4.2207C20.8477 4.10352 20.5723 3.98633 20.2793 3.86914C19.9863 3.75195 19.6992 3.65234 19.418 3.57031C19.1367 3.48828 18.8965 3.43555 18.6973 3.41211C18.3809 3.35352 18.0527 3.32422 17.7129 3.32422C17.373 3.3125 17.0449 3.30664 16.7285 3.30664H15.7266C15.6914 3.30664 15.6035 3.3125 15.4629 3.32422C15.334 3.33594 15.1934 3.35938 15.041 3.39453C14.8887 3.41797 14.748 3.45312 14.6191 3.5C14.502 3.53516 14.4434 3.58203 14.4434 3.64062Z" fill="white"/>
<path d="M37.0488 15.9102C37.3066 15.9102 37.4355 15.7988 37.4355 15.5762C37.4355 15.4707 37.4297 15.3887 37.418 15.3301C37.3477 15.1074 37.248 14.7852 37.1191 14.3633C36.9902 13.9414 36.8438 13.4551 36.6797 12.9043C36.5156 12.3535 36.334 11.7676 36.1348 11.1465C35.9473 10.5137 35.7539 9.88086 35.5547 9.24805C35.3672 8.61523 35.1797 8.00586 34.9922 7.41992C34.8047 6.82227 34.6406 6.2832 34.5 5.80273C34.4766 5.7793 34.4414 5.73828 34.3945 5.67969C34.3594 5.62109 34.3008 5.5918 34.2188 5.5918C34.1133 5.5918 34.0312 5.69141 33.9727 5.89062C33.8672 6.18359 33.7207 6.59961 33.5332 7.13867C33.3574 7.67773 33.1582 8.27539 32.9355 8.93164C32.7129 9.58789 32.4785 10.2676 32.2324 10.9707C31.998 11.6738 31.7754 12.3301 31.5645 12.9395C31.3535 13.5371 31.1719 14.0586 31.0195 14.5039C30.8672 14.9375 30.7676 15.2246 30.7207 15.3652C30.6973 15.4004 30.6855 15.4473 30.6855 15.5059C30.6855 15.7754 30.8672 15.9102 31.2305 15.9102H37.0488ZM22.5645 25.543C22.5645 25.3438 22.6699 25.2266 22.8809 25.1914C23.0801 25.1562 23.3848 25.1035 23.7949 25.0332C24.5566 24.8691 25.1895 24.5352 25.6934 24.0312C26.1973 23.5273 26.6191 22.9531 26.959 22.3086C27.2988 21.6523 27.5801 20.9727 27.8027 20.2695C28.0371 19.5664 28.2598 18.9336 28.4707 18.3711L32.9707 6.04883C33.0762 5.74414 33.1699 5.5332 33.252 5.41602C33.3457 5.28711 33.4219 5.18164 33.4805 5.09961C33.5391 5.00586 33.5859 4.90039 33.6211 4.7832C33.6562 4.66602 33.6738 4.46094 33.6738 4.16797C33.6738 4.03906 33.6562 3.92188 33.6211 3.81641C33.5859 3.71094 33.5449 3.60547 33.498 3.5C33.4629 3.38281 33.4277 3.25977 33.3926 3.13086C33.3574 2.99023 33.3398 2.82031 33.3398 2.62109C33.6445 2.58594 33.9316 2.53906 34.2012 2.48047C34.4824 2.41016 34.7402 2.29297 34.9746 2.12891C35.1035 2.03516 35.2148 1.91211 35.3086 1.75977C35.4023 1.5957 35.502 1.4375 35.6074 1.28516C35.7129 1.13281 35.8359 1.00391 35.9766 0.898438C36.1172 0.78125 36.3047 0.722656 36.5391 0.722656C36.5625 0.722656 36.5859 0.728516 36.6094 0.740234C36.6328 0.751953 36.6562 0.787109 36.6797 0.845703C36.7031 0.904297 36.7734 1.13281 36.8906 1.53125C37.0195 1.92969 37.1836 2.46289 37.3828 3.13086C37.5938 3.78711 37.8281 4.54883 38.0859 5.41602C38.3555 6.2832 38.6367 7.20898 38.9297 8.19336C39.2344 9.16602 39.5449 10.1797 39.8613 11.2344C40.1895 12.2891 40.5117 13.332 40.8281 14.3633C41.1445 15.3828 41.4434 16.373 41.7246 17.334C42.0176 18.2832 42.2871 19.1504 42.5332 19.9355C42.7793 20.7207 42.9902 21.4062 43.166 21.9922C43.3418 22.5664 43.4707 22.9883 43.5527 23.2578C43.6816 23.6445 43.8867 23.9844 44.168 24.2773C44.4492 24.5703 44.7598 24.7695 45.0996 24.875C45.4395 24.9922 45.7441 25.0566 46.0137 25.0684C46.2949 25.0801 46.5293 25.0918 46.7168 25.1035C46.916 25.1152 47.0684 25.1562 47.1738 25.2266C47.2793 25.2969 47.332 25.4434 47.332 25.666C47.332 25.7363 47.3086 25.7949 47.2617 25.8418C47.2148 25.877 47.1562 25.9062 47.0859 25.9297C47.0156 25.9531 46.9395 25.9707 46.8574 25.9824C46.7871 25.9824 46.7285 25.9883 46.6816 26H45.0996C45.0059 26 44.9062 26 44.8008 26C44.6953 25.9883 44.5312 25.9824 44.3086 25.9824C44.0977 25.9707 43.8047 25.9648 43.4297 25.9648C43.0547 25.9531 42.5566 25.9473 41.9355 25.9473C41.2793 25.9473 40.6348 25.959 40.002 25.9824C39.3809 25.9941 38.748 26.0117 38.1035 26.0352H37.207C37.1133 26.0352 37.0078 26.0293 36.8906 26.0176C36.7734 26.0176 36.6621 26.0059 36.5566 25.9824C36.4512 25.959 36.3633 25.918 36.293 25.8594C36.2227 25.8008 36.1875 25.7188 36.1875 25.6133C36.1875 25.5195 36.2344 25.4434 36.3281 25.3848C36.4219 25.3262 36.5332 25.2793 36.6621 25.2441C36.791 25.209 36.9258 25.1855 37.0664 25.1738C37.207 25.1504 37.3242 25.1328 37.418 25.1211C37.8164 25.0625 38.2031 24.998 38.5781 24.9277C38.9531 24.8457 39.3223 24.7695 39.6855 24.6992C39.9551 24.6172 40.0898 24.4707 40.0898 24.2598C40.0898 24.2363 40.0898 24.2012 40.0898 24.1543C40.0898 24.0957 40.0781 24.043 40.0547 23.9961L38.1387 17.7031C38.1152 17.6094 38.0508 17.5039 37.9453 17.3867C37.8516 17.2695 37.7344 17.2109 37.5938 17.2109H30.457C30.293 17.2109 30.1816 17.2402 30.123 17.2988C30.0645 17.3457 30.0117 17.3984 29.9648 17.457L29.0508 19.918C28.8984 20.3164 28.793 20.6797 28.7344 21.0078C28.6758 21.3242 28.6465 21.6289 28.6465 21.9219C28.6465 22.2734 28.6816 22.6602 28.752 23.082C28.8105 23.5039 28.9512 23.832 29.1738 24.0664C29.3965 24.3008 29.6543 24.4766 29.9473 24.5938C30.252 24.7109 30.5742 24.793 30.9141 24.8398C31.2539 24.875 31.5645 24.9102 31.8457 24.9453C32.127 24.9805 32.3555 25.0332 32.5312 25.1035C32.7188 25.1621 32.8125 25.2793 32.8125 25.4551C32.8125 25.5605 32.7773 25.6719 32.707 25.7891C32.6484 25.9062 32.502 25.9766 32.2676 26H31.5117C30.8203 25.9766 30.1465 25.9531 29.4902 25.9297C28.8457 25.8945 28.1719 25.877 27.4688 25.877C26.6953 25.877 25.9922 25.9004 25.3594 25.9473C24.7383 25.9824 24.1113 26 23.4785 26H23.25C22.793 26 22.5645 25.8477 22.5645 25.543Z" fill="white"/>
<path d="M53.8535 22.3438C53.8535 22.5898 53.9121 22.8066 54.0293 22.9941C54.1465 23.1816 54.2871 23.3457 54.4512 23.4863C54.6152 23.6152 54.7852 23.7266 54.9609 23.8203C55.1367 23.9141 55.2773 23.9902 55.3828 24.0488C55.4883 24.1074 55.6289 24.166 55.8047 24.2246C55.9922 24.2832 56.1914 24.3359 56.4023 24.3828C56.6133 24.4297 56.8242 24.4707 57.0352 24.5059C57.2461 24.5293 57.4336 24.541 57.5977 24.541C57.6914 24.541 57.791 24.5469 57.8965 24.5586C58.002 24.5703 58.1016 24.5996 58.1953 24.6465C58.2891 24.6934 58.3652 24.7578 58.4238 24.8398C58.4941 24.9102 58.5293 25.0039 58.5293 25.1211C58.5293 25.4258 58.4414 25.6367 58.2656 25.7539C58.0898 25.8594 57.8965 25.9121 57.6855 25.9121C56.1738 25.9355 54.668 25.959 53.168 25.9824C51.668 25.9941 50.1504 26 48.6152 26C48.3809 26 48.1934 25.9766 48.0527 25.9297C47.9121 25.8828 47.8418 25.7246 47.8418 25.4551C47.8418 25.2676 47.9062 25.127 48.0352 25.0332C48.1758 24.9395 48.3516 24.8574 48.5625 24.7871C48.8789 24.6816 49.248 24.5762 49.6699 24.4707C50.0918 24.3535 50.4961 24.1895 50.8828 23.9785C51.2695 23.7559 51.5977 23.457 51.8672 23.082C52.1367 22.6953 52.2832 22.1797 52.3066 21.5352C52.4121 18.7695 52.5293 16.0273 52.6582 13.3086C52.7871 10.5898 52.8516 7.81836 52.8516 4.99414C52.8516 4.79492 52.8281 4.625 52.7812 4.48438C52.7344 4.33203 52.6641 4.19141 52.5703 4.0625C52.4883 3.93359 52.3887 3.81055 52.2715 3.69336C52.1543 3.57617 52.0254 3.44727 51.8848 3.30664C51.8262 3.24805 51.7266 3.16602 51.5859 3.06055C51.4453 2.94336 51.2871 2.82031 51.1113 2.69141C50.9355 2.5625 50.748 2.42773 50.5488 2.28711C50.3496 2.14648 50.1562 2.01172 49.9688 1.88281C49.793 1.77734 49.6348 1.69531 49.4941 1.63672C49.3652 1.57812 49.2422 1.53125 49.125 1.49609C49.0078 1.44922 48.8906 1.4082 48.7734 1.37305C48.6562 1.32617 48.5273 1.27344 48.3867 1.21484C48.2812 1.17969 48.2285 1.12109 48.2285 1.03906C48.2285 1.01562 48.2344 0.986328 48.2461 0.951172C48.2578 0.904297 48.3047 0.880859 48.3867 0.880859C48.8555 0.845703 49.4121 0.828125 50.0566 0.828125H50.8125C51.3984 0.828125 52.002 0.839844 52.623 0.863281C53.2559 0.875 53.959 0.880859 54.7324 0.880859C54.8965 0.880859 55.0312 0.951172 55.1367 1.0918L67.4414 18.0371C67.5938 18.2363 67.7578 18.3359 67.9336 18.3359C68.1328 18.3359 68.2324 18.2363 68.2324 18.0371V4.00977C68.2324 3.64648 68.168 3.35352 68.0391 3.13086C67.9102 2.89648 67.6875 2.70312 67.3711 2.55078C67.0547 2.39844 66.627 2.26953 66.0879 2.16406C65.5605 2.04688 64.8984 1.92383 64.1016 1.79492C63.7617 1.74805 63.5449 1.69531 63.4512 1.63672C63.3574 1.56641 63.3105 1.4375 63.3105 1.25C63.3105 1.16797 63.3398 1.10352 63.3984 1.05664C63.457 1.00977 63.5273 0.980469 63.6094 0.96875C63.6914 0.945312 63.7793 0.933594 63.873 0.933594C63.9668 0.921875 64.043 0.916016 64.1016 0.916016H65.2617C65.7188 0.916016 66.2578 0.945312 66.8789 1.00391C67.5117 1.0625 68.25 1.0918 69.0938 1.0918C69.4102 1.0918 69.8086 1.08008 70.2891 1.05664C70.7695 1.02148 71.2324 1.00391 71.6777 1.00391C71.8535 1.00391 72.0059 1.00977 72.1348 1.02148C72.2637 1.02148 72.3867 1.02734 72.5039 1.03906C72.6211 1.05078 72.7383 1.06836 72.8555 1.0918C72.9844 1.11523 73.1309 1.14453 73.2949 1.17969C73.5527 1.25 73.6816 1.37305 73.6816 1.54883C73.6816 1.72461 73.5703 1.83594 73.3477 1.88281C72.7148 1.92969 72.1699 2.02344 71.7129 2.16406C71.2559 2.29297 70.875 2.49805 70.5703 2.7793C70.2773 3.04883 70.0547 3.40625 69.9023 3.85156C69.75 4.28516 69.6621 4.83594 69.6387 5.50391L69.5684 6.92773C69.4746 8.56836 69.3984 10.0156 69.3398 11.2695C69.293 12.5117 69.252 13.6543 69.2168 14.6973C69.1816 15.7285 69.1582 16.7012 69.1465 17.6152C69.1348 18.5176 69.1289 19.4551 69.1289 20.4277V21.4648C69.1289 21.7695 69.1289 22.1035 69.1289 22.4668C69.1406 22.8184 69.1465 23.2168 69.1465 23.6621V25.1211C69.1465 25.2266 69.1113 25.373 69.041 25.5605C68.9824 25.7363 68.877 25.8242 68.7246 25.8242C68.5371 25.8242 68.3672 25.7656 68.2148 25.6484C68.0742 25.5195 67.8984 25.3027 67.6875 24.998L54.5918 6.41797C54.4746 6.28906 54.3926 6.18945 54.3457 6.11914C54.3105 6.04883 54.2285 6.01367 54.0996 6.01367C53.9941 6.01367 53.9238 6.07812 53.8887 6.20703C53.8652 6.33594 53.8535 6.46484 53.8535 6.59375V22.3438Z" fill="white"/>
<path d="M94.582 3.97461L98.6602 18.7402C98.7773 19.2441 98.9297 19.4961 99.1172 19.4961C99.375 19.4961 99.5625 19.2793 99.6797 18.8457L104.074 6.29492C104.227 5.84961 104.355 5.42188 104.461 5.01172C104.566 4.60156 104.619 4.20898 104.619 3.83398C104.619 3.69336 104.607 3.53516 104.584 3.35938C104.572 3.18359 104.543 3.06641 104.496 3.00781C104.273 2.75 104.033 2.53906 103.775 2.375C103.529 2.21094 103.266 2.07031 102.984 1.95312C102.715 1.83594 102.434 1.73633 102.141 1.6543C101.848 1.57227 101.549 1.47852 101.244 1.37305C101.162 1.34961 101.121 1.25586 101.121 1.0918C101.121 0.892578 101.197 0.763672 101.35 0.705078C101.514 0.634766 101.689 0.599609 101.877 0.599609C102.17 0.599609 102.521 0.617188 102.932 0.652344C103.342 0.675781 103.775 0.705078 104.232 0.740234C104.701 0.775391 105.164 0.810547 105.621 0.845703C106.09 0.869141 106.523 0.880859 106.922 0.880859C107.273 0.880859 107.619 0.869141 107.959 0.845703C108.299 0.822266 108.674 0.78125 109.084 0.722656C109.225 0.710938 109.4 0.6875 109.611 0.652344C109.822 0.605469 109.992 0.582031 110.121 0.582031C110.18 0.582031 110.25 0.587891 110.332 0.599609C110.414 0.599609 110.49 0.617188 110.561 0.652344C110.643 0.675781 110.707 0.710938 110.754 0.757812C110.812 0.804688 110.842 0.863281 110.842 0.933594C110.842 1.05078 110.725 1.16797 110.49 1.28516C110.256 1.40234 109.98 1.51367 109.664 1.61914C109.359 1.72461 109.055 1.82422 108.75 1.91797C108.457 2.01172 108.246 2.09375 108.117 2.16406C107.977 2.23438 107.807 2.35742 107.607 2.5332C107.408 2.70898 107.215 2.90234 107.027 3.11328C106.852 3.3125 106.693 3.50586 106.553 3.69336C106.424 3.86914 106.348 3.99805 106.324 4.08008L99.3281 21.7988C99.2578 21.9863 99.1582 22.2559 99.0293 22.6074C98.9004 22.9473 98.7715 23.3047 98.6426 23.6797C98.5137 24.0547 98.3848 24.4121 98.2559 24.752C98.1387 25.0801 98.0566 25.3145 98.0098 25.4551C97.8926 25.7949 97.7402 25.9648 97.5527 25.9648C97.4238 25.9648 97.3242 25.9004 97.2539 25.7715C97.1836 25.6309 97.125 25.4961 97.0781 25.3672C96.457 23.2109 95.8125 20.9844 95.1445 18.6875C94.4766 16.3906 93.7793 14.1172 93.0527 11.8672C93.041 11.7031 92.959 11.6211 92.8066 11.6211C92.6777 11.6211 92.5898 11.709 92.543 11.8848L87.8496 23.2578C87.8027 23.3633 87.7441 23.5273 87.6738 23.75C87.6152 23.9727 87.5449 24.2188 87.4629 24.4883C87.3809 24.7461 87.293 25.0039 87.1992 25.2617C87.1055 25.5195 87.0117 25.7246 86.918 25.877C86.8359 26.0176 86.7422 26.0879 86.6367 26.0879C86.5078 26.0879 86.4023 26.0527 86.3203 25.9824C86.25 25.9004 86.1738 25.7773 86.0918 25.6133L77.9707 4.55469C77.9004 4.40234 77.8008 4.20898 77.6719 3.97461C77.543 3.72852 77.3848 3.48242 77.1973 3.23633C77.0098 2.99023 76.7871 2.76172 76.5293 2.55078C76.2832 2.32812 76.0137 2.1582 75.7207 2.04102C75.6504 1.99414 75.5625 1.96484 75.457 1.95312C75.3516 1.92969 75.2461 1.91797 75.1406 1.91797C74.9766 1.91797 74.8125 1.91211 74.6484 1.90039C74.4844 1.87695 74.3379 1.84766 74.209 1.8125C74.0801 1.76562 73.9746 1.70117 73.8926 1.61914C73.7988 1.53711 73.752 1.42578 73.752 1.28516C73.752 1.03906 73.8105 0.880859 73.9277 0.810547C74.0449 0.740234 74.209 0.705078 74.4199 0.705078C74.5137 0.705078 74.7422 0.716797 75.1055 0.740234C75.4805 0.751953 75.9141 0.769531 76.4062 0.792969C76.8984 0.816406 77.4141 0.839844 77.9531 0.863281C78.4922 0.875 78.9727 0.880859 79.3945 0.880859C79.7695 0.880859 80.1504 0.875 80.5371 0.863281C80.9238 0.839844 81.2871 0.822266 81.627 0.810547C81.9785 0.787109 82.2949 0.769531 82.5762 0.757812C82.8691 0.734375 83.0977 0.722656 83.2617 0.722656H83.666C83.9238 0.722656 84.1523 0.763672 84.3516 0.845703C84.5625 0.927734 84.668 1.0625 84.668 1.25C84.668 1.35547 84.627 1.46094 84.5449 1.56641C84.4629 1.66016 84.3633 1.70703 84.2461 1.70703H83.0156C82.6992 1.70703 82.4238 1.75391 82.1895 1.84766C81.9551 1.92969 81.7969 2.03516 81.7148 2.16406C81.6328 2.26953 81.5742 2.41602 81.5391 2.60352C81.5156 2.79102 81.5039 2.9375 81.5039 3.04297C81.5039 3.16016 81.5215 3.31836 81.5566 3.51758C81.6035 3.7168 81.6562 3.93359 81.7148 4.16797C81.7852 4.40234 81.8613 4.64258 81.9434 4.88867C82.0254 5.13477 82.1016 5.35156 82.1719 5.53906L87.3398 18.9688C87.4219 19.1562 87.5332 19.3262 87.6738 19.4785C87.8145 19.6309 87.9375 19.707 88.043 19.707C88.1602 19.707 88.3301 19.4551 88.5527 18.9512C88.752 18.5059 88.9863 17.9727 89.2559 17.3516C89.5254 16.7305 89.8008 16.0801 90.082 15.4004C90.375 14.7207 90.6621 14.041 90.9434 13.3613C91.2246 12.6816 91.4824 12.0488 91.7168 11.4629C91.8809 11.0527 91.998 10.6895 92.0684 10.373C92.1387 10.0449 92.1738 9.79297 92.1738 9.61719C92.1738 9.32422 92.1387 8.94922 92.0684 8.49219C91.998 8.03516 91.8926 7.54883 91.752 7.0332C91.623 6.50586 91.4707 5.9668 91.2949 5.41602C91.1191 4.86523 90.9258 4.35547 90.7148 3.88672C90.5039 3.40625 90.2812 2.99023 90.0469 2.63867C89.8125 2.28711 89.5781 2.04688 89.3438 1.91797C89.2852 1.87109 89.168 1.84766 88.9922 1.84766C88.8281 1.83594 88.6816 1.83008 88.5527 1.83008C88.4941 1.83008 88.3711 1.83008 88.1836 1.83008C87.9961 1.81836 87.7969 1.80664 87.5859 1.79492C87.375 1.7832 87.1758 1.77148 86.9883 1.75977C86.8008 1.73633 86.6836 1.71875 86.6367 1.70703C86.4492 1.625 86.3379 1.54883 86.3027 1.47852C86.2793 1.4082 86.2676 1.30859 86.2676 1.17969C86.2676 1.02734 86.3203 0.892578 86.4258 0.775391C86.5312 0.658203 86.666 0.599609 86.8301 0.599609C87.334 0.599609 87.7734 0.611328 88.1484 0.634766C88.5352 0.658203 88.916 0.6875 89.291 0.722656C89.6777 0.757812 90.082 0.787109 90.5039 0.810547C90.9375 0.833984 91.4531 0.845703 92.0508 0.845703C92.6484 0.845703 93.1699 0.839844 93.6152 0.828125C94.0605 0.816406 94.4766 0.804688 94.8633 0.792969C95.2617 0.769531 95.6543 0.751953 96.041 0.740234C96.4277 0.728516 96.8496 0.722656 97.3066 0.722656C97.4941 0.722656 97.6172 0.804688 97.6758 0.96875C97.7344 1.13281 97.7637 1.30859 97.7637 1.49609C97.7637 1.56641 97.7285 1.625 97.6582 1.67188C97.5879 1.70703 97.5059 1.73633 97.4121 1.75977C97.3184 1.7832 97.2246 1.80078 97.1309 1.8125C97.0488 1.82422 96.9961 1.83008 96.9727 1.83008H95.3379C95.2676 1.83008 95.1797 1.8418 95.0742 1.86523C94.9688 1.88867 94.8691 1.92969 94.7754 1.98828C94.6934 2.04688 94.6172 2.13477 94.5469 2.25195C94.4883 2.36914 94.459 2.52148 94.459 2.70898C94.459 2.95508 94.4648 3.18945 94.4766 3.41211C94.5 3.62305 94.5352 3.81055 94.582 3.97461Z" fill="white"/>
<path d="M120.826 15.9102C121.084 15.9102 121.213 15.7988 121.213 15.5762C121.213 15.4707 121.207 15.3887 121.195 15.3301C121.125 15.1074 121.025 14.7852 120.896 14.3633C120.768 13.9414 120.621 13.4551 120.457 12.9043C120.293 12.3535 120.111 11.7676 119.912 11.1465C119.725 10.5137 119.531 9.88086 119.332 9.24805C119.145 8.61523 118.957 8.00586 118.77 7.41992C118.582 6.82227 118.418 6.2832 118.277 5.80273C118.254 5.7793 118.219 5.73828 118.172 5.67969C118.137 5.62109 118.078 5.5918 117.996 5.5918C117.891 5.5918 117.809 5.69141 117.75 5.89062C117.645 6.18359 117.498 6.59961 117.311 7.13867C117.135 7.67773 116.936 8.27539 116.713 8.93164C116.49 9.58789 116.256 10.2676 116.01 10.9707C115.775 11.6738 115.553 12.3301 115.342 12.9395C115.131 13.5371 114.949 14.0586 114.797 14.5039C114.645 14.9375 114.545 15.2246 114.498 15.3652C114.475 15.4004 114.463 15.4473 114.463 15.5059C114.463 15.7754 114.645 15.9102 115.008 15.9102H120.826ZM106.342 25.543C106.342 25.3438 106.447 25.2266 106.658 25.1914C106.857 25.1562 107.162 25.1035 107.572 25.0332C108.334 24.8691 108.967 24.5352 109.471 24.0312C109.975 23.5273 110.396 22.9531 110.736 22.3086C111.076 21.6523 111.357 20.9727 111.58 20.2695C111.814 19.5664 112.037 18.9336 112.248 18.3711L116.748 6.04883C116.854 5.74414 116.947 5.5332 117.029 5.41602C117.123 5.28711 117.199 5.18164 117.258 5.09961C117.316 5.00586 117.363 4.90039 117.398 4.7832C117.434 4.66602 117.451 4.46094 117.451 4.16797C117.451 4.03906 117.434 3.92188 117.398 3.81641C117.363 3.71094 117.322 3.60547 117.275 3.5C117.24 3.38281 117.205 3.25977 117.17 3.13086C117.135 2.99023 117.117 2.82031 117.117 2.62109C117.422 2.58594 117.709 2.53906 117.979 2.48047C118.26 2.41016 118.518 2.29297 118.752 2.12891C118.881 2.03516 118.992 1.91211 119.086 1.75977C119.18 1.5957 119.279 1.4375 119.385 1.28516C119.49 1.13281 119.613 1.00391 119.754 0.898438C119.895 0.78125 120.082 0.722656 120.316 0.722656C120.34 0.722656 120.363 0.728516 120.387 0.740234C120.41 0.751953 120.434 0.787109 120.457 0.845703C120.48 0.904297 120.551 1.13281 120.668 1.53125C120.797 1.92969 120.961 2.46289 121.16 3.13086C121.371 3.78711 121.605 4.54883 121.863 5.41602C122.133 6.2832 122.414 7.20898 122.707 8.19336C123.012 9.16602 123.322 10.1797 123.639 11.2344C123.967 12.2891 124.289 13.332 124.605 14.3633C124.922 15.3828 125.221 16.373 125.502 17.334C125.795 18.2832 126.064 19.1504 126.311 19.9355C126.557 20.7207 126.768 21.4062 126.943 21.9922C127.119 22.5664 127.248 22.9883 127.33 23.2578C127.459 23.6445 127.664 23.9844 127.945 24.2773C128.227 24.5703 128.537 24.7695 128.877 24.875C129.217 24.9922 129.521 25.0566 129.791 25.0684C130.072 25.0801 130.307 25.0918 130.494 25.1035C130.693 25.1152 130.846 25.1562 130.951 25.2266C131.057 25.2969 131.109 25.4434 131.109 25.666C131.109 25.7363 131.086 25.7949 131.039 25.8418C130.992 25.877 130.934 25.9062 130.863 25.9297C130.793 25.9531 130.717 25.9707 130.635 25.9824C130.564 25.9824 130.506 25.9883 130.459 26H128.877C128.783 26 128.684 26 128.578 26C128.473 25.9883 128.309 25.9824 128.086 25.9824C127.875 25.9707 127.582 25.9648 127.207 25.9648C126.832 25.9531 126.334 25.9473 125.713 25.9473C125.057 25.9473 124.412 25.959 123.779 25.9824C123.158 25.9941 122.525 26.0117 121.881 26.0352H120.984C120.891 26.0352 120.785 26.0293 120.668 26.0176C120.551 26.0176 120.439 26.0059 120.334 25.9824C120.229 25.959 120.141 25.918 120.07 25.8594C120 25.8008 119.965 25.7188 119.965 25.6133C119.965 25.5195 120.012 25.4434 120.105 25.3848C120.199 25.3262 120.311 25.2793 120.439 25.2441C120.568 25.209 120.703 25.1855 120.844 25.1738C120.984 25.1504 121.102 25.1328 121.195 25.1211C121.594 25.0625 121.98 24.998 122.355 24.9277C122.73 24.8457 123.1 24.7695 123.463 24.6992C123.732 24.6172 123.867 24.4707 123.867 24.2598C123.867 24.2363 123.867 24.2012 123.867 24.1543C123.867 24.0957 123.855 24.043 123.832 23.9961L121.916 17.7031C121.893 17.6094 121.828 17.5039 121.723 17.3867C121.629 17.2695 121.512 17.2109 121.371 17.2109H114.234C114.07 17.2109 113.959 17.2402 113.9 17.2988C113.842 17.3457 113.789 17.3984 113.742 17.457L112.828 19.918C112.676 20.3164 112.57 20.6797 112.512 21.0078C112.453 21.3242 112.424 21.6289 112.424 21.9219C112.424 22.2734 112.459 22.6602 112.529 23.082C112.588 23.5039 112.729 23.832 112.951 24.0664C113.174 24.3008 113.432 24.4766 113.725 24.5938C114.029 24.7109 114.352 24.793 114.691 24.8398C115.031 24.875 115.342 24.9102 115.623 24.9453C115.904 24.9805 116.133 25.0332 116.309 25.1035C116.496 25.1621 116.59 25.2793 116.59 25.4551C116.59 25.5605 116.555 25.6719 116.484 25.7891C116.426 25.9062 116.279 25.9766 116.045 26H115.289C114.598 25.9766 113.924 25.9531 113.268 25.9297C112.623 25.8945 111.949 25.877 111.246 25.877C110.473 25.877 109.77 25.9004 109.137 25.9473C108.516 25.9824 107.889 26 107.256 26H107.027C106.57 26 106.342 25.8477 106.342 25.543Z" fill="white"/>
<path d="M135.609 24.418V3.07812C135.609 2.91406 135.557 2.7793 135.451 2.67383C135.346 2.56836 135.211 2.48633 135.047 2.42773C134.895 2.35742 134.73 2.31055 134.555 2.28711C134.379 2.26367 134.221 2.25195 134.08 2.25195H133.359C133.195 2.25195 133.061 2.25195 132.955 2.25195C132.85 2.25195 132.75 2.24023 132.656 2.2168C132.516 2.2168 132.445 2.17578 132.445 2.09375C132.445 1.96484 132.516 1.88281 132.656 1.84766C133.043 1.77734 133.395 1.72461 133.711 1.68945C134.039 1.6543 134.361 1.63086 134.678 1.61914C134.994 1.5957 135.311 1.58398 135.627 1.58398C135.955 1.57227 136.312 1.54883 136.699 1.51367C136.758 1.51367 136.887 1.50781 137.086 1.49609C137.297 1.47266 137.543 1.44922 137.824 1.42578C138.117 1.40234 138.422 1.37891 138.738 1.35547C139.066 1.32031 139.371 1.29102 139.652 1.26758C139.945 1.23242 140.197 1.20312 140.408 1.17969C140.619 1.15625 140.76 1.13867 140.83 1.12695C141.17 1.08008 141.539 1.04492 141.938 1.02148C142.348 0.986328 142.752 0.96875 143.15 0.96875C144.369 0.96875 145.471 1.12109 146.455 1.42578C147.451 1.73047 148.301 2.16406 149.004 2.72656C149.707 3.28906 150.246 3.96289 150.621 4.74805C151.008 5.5332 151.201 6.40625 151.201 7.36719C151.201 8.12891 151.119 8.84961 150.955 9.5293C150.791 10.1973 150.469 10.8535 149.988 11.498C149.754 11.8027 149.502 12.0664 149.232 12.2891C148.975 12.5 148.705 12.6934 148.424 12.8691C148.154 13.0449 147.873 13.209 147.58 13.3613C147.287 13.5137 146.994 13.6836 146.701 13.8711C146.619 13.918 146.578 14 146.578 14.1172C146.578 14.1406 146.607 14.2109 146.666 14.3281C147.463 15.3008 148.236 16.291 148.986 17.2988C149.736 18.3066 150.463 19.3438 151.166 20.4102C151.494 20.8672 151.857 21.3301 152.256 21.7988C152.666 22.2676 153.076 22.707 153.486 23.1172C153.709 23.3398 153.938 23.5508 154.172 23.75C154.406 23.9492 154.676 24.1426 154.98 24.3301C155.297 24.5059 155.666 24.6758 156.088 24.8398C156.51 24.9922 157.014 25.127 157.6 25.2441C157.752 25.291 157.881 25.3438 157.986 25.4023C158.104 25.4492 158.162 25.5254 158.162 25.6309C158.162 25.8418 158.092 25.9531 157.951 25.9648C157.928 25.9883 157.875 26 157.793 26C157.723 26 157.635 26 157.529 26H157.072C156.838 26 156.557 26 156.229 26C155.912 25.9883 155.572 25.9824 155.209 25.9824C154.857 25.9707 154.494 25.959 154.119 25.9473C153.744 25.9355 153.398 25.9238 153.082 25.9121C152.613 25.8887 152.174 25.8477 151.764 25.7891C151.354 25.7305 150.943 25.5664 150.533 25.2969C150.264 25.168 149.982 24.9453 149.689 24.6289C149.396 24.3008 149.121 23.9492 148.863 23.5742C148.547 23.1523 148.207 22.6836 147.844 22.168C147.492 21.6523 147.135 21.1309 146.771 20.6035C146.408 20.0762 146.051 19.5605 145.699 19.0566C145.359 18.5527 145.043 18.0957 144.75 17.6855C144.469 17.2637 144.229 16.9121 144.029 16.6309C143.842 16.3379 143.719 16.1445 143.66 16.0508C143.613 15.9805 143.525 15.8574 143.396 15.6816C143.279 15.5059 143.15 15.3301 143.01 15.1543C142.869 14.9668 142.729 14.8027 142.588 14.6621C142.447 14.5098 142.342 14.4277 142.271 14.416C141.99 14.3809 141.662 14.3574 141.287 14.3457C140.924 14.334 140.59 14.3281 140.285 14.3281H139.828C139.699 14.3281 139.57 14.3633 139.441 14.4336C139.324 14.4922 139.242 14.5977 139.195 14.75V23.0469C139.195 23.1875 139.201 23.3516 139.213 23.5391C139.236 23.7266 139.266 23.9082 139.301 24.084C139.336 24.2598 139.383 24.4238 139.441 24.5762C139.5 24.7168 139.57 24.8164 139.652 24.875C139.805 24.9805 140.062 25.0742 140.426 25.1562C140.789 25.2266 141.17 25.2852 141.568 25.332C141.979 25.3672 142.365 25.3965 142.729 25.4199C143.104 25.4434 143.367 25.4551 143.52 25.4551C143.625 25.4551 143.695 25.502 143.73 25.5957C143.766 25.6895 143.783 25.7832 143.783 25.877C143.783 26.0059 143.754 26.082 143.695 26.1055C143.648 26.1406 143.549 26.1582 143.396 26.1582C143.209 26.1582 142.91 26.1465 142.5 26.123C142.09 26.1113 141.656 26.0938 141.199 26.0703C140.754 26.0586 140.338 26.041 139.951 26.0176C139.576 26.0059 139.324 26 139.195 26H133.746C133.699 26 133.623 26 133.518 26C133.412 25.9883 133.295 25.9824 133.166 25.9824C133.037 25.9707 132.908 25.9648 132.779 25.9648C132.65 25.9531 132.539 25.9473 132.445 25.9473C132.316 25.9238 132.211 25.9121 132.129 25.9121C132.059 25.9004 132.023 25.8301 132.023 25.7012C132.023 25.6191 132.047 25.5605 132.094 25.5254C132.141 25.4785 132.258 25.4258 132.445 25.3672C132.668 25.3203 132.949 25.2969 133.289 25.2969C133.641 25.2852 133.98 25.2559 134.309 25.209C134.637 25.1621 134.924 25.0859 135.17 24.9805C135.428 24.8633 135.574 24.6758 135.609 24.418ZM139.195 2.16406V13.4492C139.195 13.5664 139.23 13.666 139.301 13.748C139.371 13.8301 139.447 13.8711 139.529 13.8711H140.232C140.631 13.8711 141.053 13.8535 141.498 13.8184C141.943 13.7832 142.301 13.7363 142.57 13.6777C142.887 13.5957 143.203 13.4668 143.52 13.291C143.836 13.1035 144.135 12.8984 144.416 12.6758C144.697 12.4414 144.961 12.1953 145.207 11.9375C145.453 11.668 145.67 11.4102 145.857 11.1641C146.057 10.8828 146.232 10.625 146.385 10.3906C146.537 10.1562 146.666 9.91016 146.771 9.65234C146.889 9.39453 146.977 9.10742 147.035 8.79102C147.105 8.46289 147.158 8.07617 147.193 7.63086C147.193 7.00977 147.146 6.45898 147.053 5.97852C146.959 5.48633 146.807 5.04102 146.596 4.64258C146.396 4.24414 146.145 3.875 145.84 3.53516C145.535 3.19531 145.172 2.86719 144.75 2.55078C144.609 2.45703 144.445 2.36328 144.258 2.26953C144.082 2.17578 143.895 2.09375 143.695 2.02344C143.496 1.94141 143.291 1.87109 143.08 1.8125C142.869 1.75391 142.67 1.70703 142.482 1.67188C142.377 1.64844 142.201 1.63672 141.955 1.63672C141.709 1.625 141.51 1.61914 141.357 1.61914C141.193 1.61914 140.988 1.625 140.742 1.63672C140.496 1.63672 140.256 1.6543 140.021 1.68945C139.799 1.72461 139.605 1.7832 139.441 1.86523C139.277 1.93555 139.195 2.03516 139.195 2.16406Z" fill="white"/>
<path d="M170.256 15.9102C170.514 15.9102 170.643 15.7988 170.643 15.5762C170.643 15.4707 170.637 15.3887 170.625 15.3301C170.555 15.1074 170.455 14.7852 170.326 14.3633C170.197 13.9414 170.051 13.4551 169.887 12.9043C169.723 12.3535 169.541 11.7676 169.342 11.1465C169.154 10.5137 168.961 9.88086 168.762 9.24805C168.574 8.61523 168.387 8.00586 168.199 7.41992C168.012 6.82227 167.848 6.2832 167.707 5.80273C167.684 5.7793 167.648 5.73828 167.602 5.67969C167.566 5.62109 167.508 5.5918 167.426 5.5918C167.32 5.5918 167.238 5.69141 167.18 5.89062C167.074 6.18359 166.928 6.59961 166.74 7.13867C166.564 7.67773 166.365 8.27539 166.143 8.93164C165.92 9.58789 165.686 10.2676 165.439 10.9707C165.205 11.6738 164.982 12.3301 164.771 12.9395C164.561 13.5371 164.379 14.0586 164.227 14.5039C164.074 14.9375 163.975 15.2246 163.928 15.3652C163.904 15.4004 163.893 15.4473 163.893 15.5059C163.893 15.7754 164.074 15.9102 164.438 15.9102H170.256ZM155.771 25.543C155.771 25.3438 155.877 25.2266 156.088 25.1914C156.287 25.1562 156.592 25.1035 157.002 25.0332C157.764 24.8691 158.396 24.5352 158.9 24.0312C159.404 23.5273 159.826 22.9531 160.166 22.3086C160.506 21.6523 160.787 20.9727 161.01 20.2695C161.244 19.5664 161.467 18.9336 161.678 18.3711L166.178 6.04883C166.283 5.74414 166.377 5.5332 166.459 5.41602C166.553 5.28711 166.629 5.18164 166.688 5.09961C166.746 5.00586 166.793 4.90039 166.828 4.7832C166.863 4.66602 166.881 4.46094 166.881 4.16797C166.881 4.03906 166.863 3.92188 166.828 3.81641C166.793 3.71094 166.752 3.60547 166.705 3.5C166.67 3.38281 166.635 3.25977 166.6 3.13086C166.564 2.99023 166.547 2.82031 166.547 2.62109C166.852 2.58594 167.139 2.53906 167.408 2.48047C167.689 2.41016 167.947 2.29297 168.182 2.12891C168.311 2.03516 168.422 1.91211 168.516 1.75977C168.609 1.5957 168.709 1.4375 168.814 1.28516C168.92 1.13281 169.043 1.00391 169.184 0.898438C169.324 0.78125 169.512 0.722656 169.746 0.722656C169.77 0.722656 169.793 0.728516 169.816 0.740234C169.84 0.751953 169.863 0.787109 169.887 0.845703C169.91 0.904297 169.98 1.13281 170.098 1.53125C170.227 1.92969 170.391 2.46289 170.59 3.13086C170.801 3.78711 171.035 4.54883 171.293 5.41602C171.562 6.2832 171.844 7.20898 172.137 8.19336C172.441 9.16602 172.752 10.1797 173.068 11.2344C173.396 12.2891 173.719 13.332 174.035 14.3633C174.352 15.3828 174.65 16.373 174.932 17.334C175.225 18.2832 175.494 19.1504 175.74 19.9355C175.986 20.7207 176.197 21.4062 176.373 21.9922C176.549 22.5664 176.678 22.9883 176.76 23.2578C176.889 23.6445 177.094 23.9844 177.375 24.2773C177.656 24.5703 177.967 24.7695 178.307 24.875C178.646 24.9922 178.951 25.0566 179.221 25.0684C179.502 25.0801 179.736 25.0918 179.924 25.1035C180.123 25.1152 180.275 25.1562 180.381 25.2266C180.486 25.2969 180.539 25.4434 180.539 25.666C180.539 25.7363 180.516 25.7949 180.469 25.8418C180.422 25.877 180.363 25.9062 180.293 25.9297C180.223 25.9531 180.146 25.9707 180.064 25.9824C179.994 25.9824 179.936 25.9883 179.889 26H178.307C178.213 26 178.113 26 178.008 26C177.902 25.9883 177.738 25.9824 177.516 25.9824C177.305 25.9707 177.012 25.9648 176.637 25.9648C176.262 25.9531 175.764 25.9473 175.143 25.9473C174.486 25.9473 173.842 25.959 173.209 25.9824C172.588 25.9941 171.955 26.0117 171.311 26.0352H170.414C170.32 26.0352 170.215 26.0293 170.098 26.0176C169.98 26.0176 169.869 26.0059 169.764 25.9824C169.658 25.959 169.57 25.918 169.5 25.8594C169.43 25.8008 169.395 25.7188 169.395 25.6133C169.395 25.5195 169.441 25.4434 169.535 25.3848C169.629 25.3262 169.74 25.2793 169.869 25.2441C169.998 25.209 170.133 25.1855 170.273 25.1738C170.414 25.1504 170.531 25.1328 170.625 25.1211C171.023 25.0625 171.41 24.998 171.785 24.9277C172.16 24.8457 172.529 24.7695 172.893 24.6992C173.162 24.6172 173.297 24.4707 173.297 24.2598C173.297 24.2363 173.297 24.2012 173.297 24.1543C173.297 24.0957 173.285 24.043 173.262 23.9961L171.346 17.7031C171.322 17.6094 171.258 17.5039 171.152 17.3867C171.059 17.2695 170.941 17.2109 170.801 17.2109H163.664C163.5 17.2109 163.389 17.2402 163.33 17.2988C163.271 17.3457 163.219 17.3984 163.172 17.457L162.258 19.918C162.105 20.3164 162 20.6797 161.941 21.0078C161.883 21.3242 161.854 21.6289 161.854 21.9219C161.854 22.2734 161.889 22.6602 161.959 23.082C162.018 23.5039 162.158 23.832 162.381 24.0664C162.604 24.3008 162.861 24.4766 163.154 24.5938C163.459 24.7109 163.781 24.793 164.121 24.8398C164.461 24.875 164.771 24.9102 165.053 24.9453C165.334 24.9805 165.562 25.0332 165.738 25.1035C165.926 25.1621 166.02 25.2793 166.02 25.4551C166.02 25.5605 165.984 25.6719 165.914 25.7891C165.855 25.9062 165.709 25.9766 165.475 26H164.719C164.027 25.9766 163.354 25.9531 162.697 25.9297C162.053 25.8945 161.379 25.877 160.676 25.877C159.902 25.877 159.199 25.9004 158.566 25.9473C157.945 25.9824 157.318 26 156.686 26H156.457C156 26 155.771 25.8477 155.771 25.543Z" fill="white"/>
<path d="M193.459 3.64062V24.0312C193.459 24.3008 193.605 24.5059 193.898 24.6465C194.203 24.7871 194.549 24.8926 194.936 24.9629C195.334 25.0332 195.727 25.0859 196.113 25.1211C196.5 25.1445 196.781 25.1738 196.957 25.209C197.062 25.3379 197.121 25.4316 197.133 25.4902C197.156 25.5371 197.168 25.6133 197.168 25.7188C197.168 25.8242 197.133 25.9121 197.062 25.9824C197.004 26.0527 196.928 26.1055 196.834 26.1406C196.74 26.1875 196.635 26.2227 196.518 26.2461C196.412 26.2695 196.312 26.2812 196.219 26.2812C195.984 26.2812 195.627 26.2578 195.146 26.2109C194.666 26.1641 194.156 26.1113 193.617 26.0527C193.09 26.0059 192.574 25.959 192.07 25.9121C191.578 25.8652 191.197 25.8418 190.928 25.8418C190.471 25.8418 190.031 25.8477 189.609 25.8594C189.188 25.8711 188.748 25.918 188.291 26C188.197 26 188.045 26.0176 187.834 26.0527C187.635 26.0996 187.412 26.1465 187.166 26.1934C186.92 26.2402 186.674 26.2812 186.428 26.3164C186.193 26.3633 186 26.3867 185.848 26.3867C185.73 26.3867 185.643 26.334 185.584 26.2285C185.525 26.1348 185.496 26.0586 185.496 26C185.496 25.8477 185.578 25.7246 185.742 25.6309C185.918 25.5371 186.064 25.4785 186.182 25.4551C186.252 25.4199 186.381 25.3789 186.568 25.332C186.768 25.2852 186.984 25.2383 187.219 25.1914C187.453 25.1328 187.676 25.0801 187.887 25.0332C188.109 24.9746 188.285 24.9219 188.414 24.875C188.602 24.8281 188.766 24.7812 188.906 24.7344C189.047 24.6758 189.164 24.6055 189.258 24.5234C189.352 24.4297 189.422 24.3125 189.469 24.1719C189.516 24.0195 189.539 23.8262 189.539 23.5918V4.34375C189.539 4.25 189.533 4.15039 189.521 4.04492C189.51 3.92773 189.486 3.82227 189.451 3.72852C189.416 3.63477 189.363 3.55859 189.293 3.5C189.223 3.44141 189.123 3.41211 188.994 3.41211H185.057C184.529 3.41211 184.078 3.45898 183.703 3.55273C183.328 3.63477 182.982 3.76953 182.666 3.95703C182.279 4.15625 181.887 4.42578 181.488 4.76562C181.102 5.10547 180.803 5.46289 180.592 5.83789C180.557 5.89648 180.521 5.97852 180.486 6.08398C180.463 6.18945 180.428 6.29492 180.381 6.40039C180.334 6.50586 180.281 6.59961 180.223 6.68164C180.164 6.76367 180.094 6.80469 180.012 6.80469C179.965 6.80469 179.912 6.76953 179.854 6.69922C179.795 6.62891 179.736 6.54102 179.678 6.43555C179.619 6.31836 179.566 6.19531 179.52 6.06641C179.484 5.92578 179.467 5.79102 179.467 5.66211C179.467 5.4043 179.52 5.13477 179.625 4.85352C179.742 4.57227 179.883 4.27344 180.047 3.95703C180.211 3.64062 180.387 3.30078 180.574 2.9375C180.762 2.5625 180.932 2.15234 181.084 1.70703V1.39062C181.084 1.30859 181.102 1.2207 181.137 1.12695C181.195 1.02148 181.277 0.962891 181.383 0.951172C181.5 0.927734 181.623 0.916016 181.752 0.916016C181.857 0.916016 181.945 0.951172 182.016 1.02148C182.086 1.08008 182.156 1.15039 182.227 1.23242C182.297 1.31445 182.373 1.40234 182.455 1.49609C182.549 1.57812 182.66 1.63672 182.789 1.67188C182.93 1.70703 183.199 1.75391 183.598 1.8125C183.996 1.85938 184.541 1.90625 185.232 1.95312C185.936 2 186.791 2.04102 187.799 2.07617C188.807 2.11133 189.996 2.12891 191.367 2.12891C191.695 2.12891 192.07 2.12305 192.492 2.11133C192.914 2.08789 193.348 2.06445 193.793 2.04102C194.25 2.01758 194.701 2 195.146 1.98828C195.592 1.96484 196.002 1.95312 196.377 1.95312C196.67 1.95312 196.934 1.96484 197.168 1.98828C197.402 2.01172 197.654 2.04688 197.924 2.09375C198.064 2.11719 198.217 2.14062 198.381 2.16406C198.545 2.1875 198.709 2.21094 198.873 2.23438C199.037 2.24609 199.189 2.25781 199.33 2.26953C199.471 2.28125 199.582 2.28711 199.664 2.28711C199.887 2.28711 199.998 2.16406 199.998 1.91797C199.998 1.78906 200.039 1.66602 200.121 1.54883C200.227 1.41992 200.367 1.26758 200.543 1.0918C200.719 0.916016 200.871 0.828125 201 0.828125C201.094 0.828125 201.193 0.892578 201.299 1.02148C201.416 1.15039 201.527 1.30859 201.633 1.49609C201.75 1.67188 201.855 1.85352 201.949 2.04102C202.055 2.2168 202.143 2.35742 202.213 2.46289C202.295 2.65039 202.354 2.87891 202.389 3.14844C202.424 3.40625 202.465 3.60547 202.512 3.74609C202.559 3.85156 202.658 4.02148 202.811 4.25586C202.975 4.49023 203.139 4.74219 203.303 5.01172C203.467 5.26953 203.613 5.52148 203.742 5.76758C203.883 6.01367 203.953 6.20703 203.953 6.34766C203.953 6.65234 203.818 6.80469 203.549 6.80469C203.385 6.80469 203.186 6.71094 202.951 6.52344C202.729 6.33594 202.488 6.11914 202.23 5.87305C201.984 5.62695 201.732 5.38086 201.475 5.13477C201.217 4.87695 200.977 4.67773 200.754 4.53711C200.602 4.44336 200.391 4.33789 200.121 4.2207C199.863 4.10352 199.588 3.98633 199.295 3.86914C199.002 3.75195 198.715 3.65234 198.434 3.57031C198.152 3.48828 197.912 3.43555 197.713 3.41211C197.396 3.35352 197.068 3.32422 196.729 3.32422C196.389 3.3125 196.061 3.30664 195.744 3.30664H194.742C194.707 3.30664 194.619 3.3125 194.479 3.32422C194.35 3.33594 194.209 3.35938 194.057 3.39453C193.904 3.41797 193.764 3.45312 193.635 3.5C193.518 3.53516 193.459 3.58203 193.459 3.64062Z" fill="white"/>
</svg>
